<?xml version="1.0" encoding="UTF-8"?>
<!DOCTYPE svg PUBLIC "-//W3C//DTD SVG 1.1//EN" "http://www.w3.org/Graphics/SVG/1.1/DTD/svg11.dtd" [
<!ATTLIST svg
	xmlns:attrib CDATA #IMPLIED
>
]>
<svg onload="setColors()" width="100%" height="100%" viewBox="2539481.9 -5525183.5 14577.4 18548.5" xmlns="http://www.w3.org/2000/svg" xmlns:xlink="http://www.w3.org/1999/xlink" xmlns:attrib="http://www.carto.net/attrib/">
<script type="text/ecmascript"><![CDATA[
        var arrData = new Array(
                [101, "Nells Ländchen"],
                [102, "Maximin"],
                [103, "Altstadt"],
                [104, "Barbara"],
                [105, "Matthias"],
                [201, "Ehrang"],
                [202, "Quint"],
                [203, "Pfalzel"],
                [204, "Ruwer"],
                [205, "Eitelsbach"],
                [206, "Biewer"],
                [301, "Pallien"],
                [302, "Trier-West"],
                [303, "Euren"],
                [304, "Zewen"],
                [401, "Alt-Kürenz"],
                [402, "Neu-Kürenz"],
                [403, "Gartenfeld"],
                [404, "Olewig"],
                [405, "Tarforst"],
                [406, "Filsch"],
                [407, "Irsch"],
                [408, "Kernscheid"],
                [501, "Alt-Heiligkreuz"],
                [502, "Neu-Heiligkreuz"],
                [503, "Mariahof"],
                [504, "Weismark"],
                [505, "Feyen"]);
				
        function setColors() {
			    var myArrayData = ["101", "102", "103", "104", "105", "201", "202", "203", "204", "205", "206", "301", "302", "303", "304", "401", "402", "403", "404", "405", "406", "407", "408", "501", "502", "503", "504", "505"];
			var myArrayColors = ["#FFEBEB", "#FFD3D3", "#FFB8B8", "#FF9999", "#FF7474", "#FFD3D3", "#FF9999", "#FFB8B8", "#FFEBEB", "#FF9999", "#FFD3D3", "#FFD3D3", "#FFEBEB", "#FFB8B8", "#FFD3D3", "#FF9999", "#FFEBEB", "#FFEBEB", "#FFB8B8", "#FFEBEB", "#FFD3D3", "#FFD3D3", "#FF9999", "#FFB8B8", "#FFD3D3", "#FFEBEB", "#FF9999", "#FFB8B8", "#FFEBEB", "#FFEBEB", "#FFD3D3", "#FFB8B8", "#FFEBEB", "#FFD3D3", "#FF9999", "#FFB8B8"];
 for (i=0; i<myArrayData.length; i++) {
    myElem = document.getElementById(myArrayData[i]);
    myElem.setAttributeNS(null, "fill", myArrayColors[i]);
 }
}

function showData(evt) {
   myElem = document.getElementById("info");
   adat = findDataById(evt.target.id);
   myElem.firstChild.nodeValue = adat[1];
}

function findDataById(id) {
        for (i=0; i < arrData.length; i++) {
                if (arrData[i][0] == id) {
                   return arrData[i];
                }
        }
}
]]> </script>
	<g id="stadtbezirke_trier" fill="none" stroke="black" stroke-width="7.3" stroke-linecap="round" stroke-linejoin="round">
		<path id="101" onmousemove="showData(evt);" attrib:stbname="Nells Ländchen" d="M2548005 -5515588l363.9 -101.6l462.2 -118l127.9 -29.5l334.4 -55.7l29.5 173.8l-3.3 203.3l-95.1 190.1l-62.3 68.8l-144.2 72.1l-288.5 200l-291.8 196.7l-380.3 239.3l-200 111.5l-233.6 159.5l-1.6 0l-70.3 0l-1.6 0l-166.7 -34.7l-1.4 -.3l-227.6 -199.6l31.5 -31.5l-52.5 -56l-108.5 -91l-122.6 -164.6l-94.5 -178.6l224.1 -94.5l-35 -49l56 -28l-38.5 -115.6l128.1 -30.7l232.8 -49.2l272.1 -75.4l357.3 -111.5z" />
		<path id="102" onmousemove="showData(evt);" attrib:stbname="Maximin" d="M2546808.1 -5515034.1l94.5 178.6l122.6 164.6l108.5 91l52.5 56l-31.5 31.5l227.6 199.6l1.4 .3l166.7 34.7l1.6 0l70.3 0l1.6 0l-248.6 199.6l-52.5 63l-.7 1l-220.1 349.1l-.4 .7l-1.2 -.7l-61.2 -35.7l-1.2 -.7l-.5 .7l-62.6 91.3l-.4 .6l-1.2 -.6l-120.5 -65.5l-314.5 -184.9l1.6 0l-.6 -.4l-35.8 -21.2l-18.1 -7.5l-153.9 -63.9l-314.9 -121.7l-15.1 -49.8l-193.1 -211.7l-92.6 39.7l-100.5 -68.8l169.3 -232.8l-34.4 -29.1l63.5 -63.5l185.2 -166.7l238.1 -179.3l391.7 -171.4l171.4 -61.2l214.4 -52.2l38.5 115.6l-56 28l35 49l-224.1 94.5z" />
		<path id="103" onmousemove="showData(evt);" attrib:stbname="Altstadt" d="M2545961.2 -5512780.6l-418 -79.4l-354.5 -63.5l5.9 -74.2l9.9 -124.2l55.6 -418l43.1 -317l42.3 -137.6l209 -396.9l195.8 -235.5l34.4 29.1l-169.3 232.8l100.5 68.8l92.6 -39.7l193.1 211.7l15.1 49.8l314.9 121.7l153.9 63.9l18.1 7.5l35.8 21.2l.6 .4l312.8 184.9l120.5 65.5l1.2 .6l.4 -.6l62.6 -91.3l.5 -.7l1.2 .7l61.2 35.7l1.2 .7l-160.7 284l-32.4 57.3l-105.8 158.8l-122.5 179.4l-99.7 146l-227.5 217l-18.5 -47.6l-373.1 -111.1z" />
		<path id="104" onmousemove="showData(evt);" attrib:stbname="Barbara" d="M2545543.2 -5512860l418 79.4l373.1 111.1l18.5 47.6l-153.3 126.5l-169.5 138l-95.3 153.5l-140.2 -21.2l-63.5 5.3l-100.5 39.7l-97.9 10.6l-108.5 -10.6l-84.8 -14.8l-21 -3.7l-124.4 5.3l-15.9 -301.6l10.6 -428.6l354.5 63.5z" />
		<path id="105" onmousemove="showData(evt);" attrib:stbname="Matthias" d="M2544651 -5509883.6l242.1 -301.6l91.3 -182.6l103.2 -234.2l43.7 -166.7l79.4 -317.5l28.8 -435.6l-27 -475.7l-18.5 -195.8l124.4 -5.3l21 3.7l84.8 14.8l108.5 10.6l97.9 -10.6l100.5 -39.7l63.5 -5.3l140.2 21.2l-37 68.8l-14 45.1l-33.6 108.4l-10.6 137.6l15.9 382.6l3.2 92.1l-73 215.9l-101.6 168.3l-288.9 339.7l-152.4 177.8l-92.2 138.6l-160.2 253.9l-230.5 273.5l-108.7 -82z" />
		<path id="201" onmousemove="showData(evt);" attrib:stbname="Ehrang" d="M2550588.1 -5520906l57.4 -12.5l-84.9 189.8l-177.3 284.7l164.8 124.9l64.9 42.5l-147.4 142.4l-48 54.8l92.9 110l162.3 15l17.5 -22.5l227.3 25l-3 368.4l-50.4 364.9l-121.2 245.8l-87.6 259.7l-7.5 269.7l12.5 342.2l37.5 342.2l8.5 82.8l58.3 426l-206.3 -4.5l-22.4 125.6l-89.7 98.7l-188.4 67.3l-107.6 -699.6l-444 192.8l-80.7 4.5l-233.2 -71.8l-197.3 -9l-165.9 354.3l-26.9 206.3l-95.7 174.9l-229.5 -167.2l-118 167.2l-22.9 -95.1l-45.9 -16.4l-22.9 32.8l-131.1 -91.8l-39.3 62.3l121.3 82l-118 150.8l-206.5 278.7l-95.1 42.6l-26.2 -13.1l-3.3 22.9l-72.1 134.4l-36.1 82l-50.8 -.5l1.6 -61.8l29.5 -186.9l-141 -91.8l-209.8 -3.3l-36.1 -55.7l59 -101.6l39.3 -82l98.4 -108.2l101.6 45.9l42.6 65.6l75.4 -114.7l-39.3 -124.6l-16.4 -278.7l72.1 -167.2l-45.9 6.6l-141 75.4l-114.7 95.1l-78.7 88.5l-62.3 75.4l-91.8 134.4l-124.6 59l-36.1 -16.4l-137.7 -9.8l-193.4 39.3l-19.7 -154.1l-104.9 -219.6l-95.1 -49.2l-98.4 -88.5l-124.6 -82l-82 127.9l-55.7 -134.4l-111.5 -62.3l-337.7 -131.1l0 108.2l29.5 45.9l-29.5 160.6l62.3 85.2l-68.8 72.1l-124.6 -16.4l-108.2 -68.8l-2.7 -81l2.2 -49.2l-36.1 -7.7l23.2 -177.9l-43.8 -72.2l110.8 -72.2l25.8 -141.8l-2.6 -85.1l177.9 -56.7l10.3 -61.9l2.6 -77.3l20.6 -72.2l46.4 -100.5l-41.2 -98l33.5 -113.4l-105.7 -131.5l134 -67l67 -77.3l87.6 2.6l79.9 -15.5l98 -43.8l49 0l98 -38.7l98 -25.8l59.3 -2.6l113.4 -59.3l136.6 -74.8l82.5 -18l43.8 -77.3l87.6 -82.5l12.9 10.3l61.9 -36.1l139.2 -162.4l165 -177.9l38.7 -105.7l41.2 -69.6l61.9 -177.9l30.9 -98l82.5 -335.1l45.7 -75.7l-90.5 -115.1l-57.6 -246.7l-41.1 -41.1l189.1 -164.5l180.9 -279.6l115.1 -148l-74 -16.4l-123.3 -74l-.2 -42.8l-18.5 -48.3l23.8 -124.4l79.4 -182.6l87.3 -142.9l29.1 -158.8l79.4 -148.2l58.2 -66.1l13.2 -111.1l10.6 -63.5l18.5 -26.5l5.3 -37l5.3 -63.5l13.2 -71.4l-15.9 -29.1l2.6 -76.7l39.7 -47.6l60.9 -105.8l52.9 -60.9l-2.6 -55.6l34.4 -87.3l-47.6 -97.9l-15.9 -71.4l18.5 -50.3l0 -116.4l21.2 -45l-13.2 -256.6l108.5 -172l-7.9 -108.5l31.8 -52.9l95.3 -71.4l169.3 -39.7l156.1 -42.3l90 -42.3l87.3 -31.8l116.4 -45l254 -79.4l79.4 -10.6l100.5 2.6l103.2 -60.9l74.1 -45l79.4 15.9l-37 82l21.2 103.2l74.1 13.2l105.8 10.6l0 116.4l50.3 82l29.1 79.4l-18.5 95.3l68.8 68.8l7.9 79.4l39.7 23.8l37 15.9l21.2 34.4l52.9 -10.6l37 37l15.9 42.3l45 55.6l26.5 74.1l63.5 2.6l50.3 47.6l10.6 66.1l-50.3 71.4l39.7 76.7l153.5 15.9l74.1 18.5l-5.3 60.9l-34.4 71.4l-63.5 100.5l29.1 134.9l-82 206.4l47.6 90l148.2 71.4l119 181.7l-92.4 45l10 45l5 242.3l-7.5 92.4l-42.5 149.9l0 72.4l-257.2 -5l-45 122.4l-69.9 182.3l-72.4 207.3l-77.4 189.8l-99.9 302.2l-52.4 72.4l-7.5 69.9l147.4 0l54.9 -52.4l32.5 -10l182.3 -124.9z" />
		<path id="202" onmousemove="showData(evt);" attrib:stbname="Quint" d="M2550171 -5520718.7l7.5 -69.9l52.4 -72.4l99.9 -302.2l77.4 -189.8l72.4 -207.3l69.9 -182.3l45 -122.4l257.2 5l0 -72.4l42.5 -149.9l7.5 -92.4l-5 -242.3l-10 -45l92.4 -45l92.4 144.9l42.5 62.4l47.5 15l50 -37.5l25 89.9l-54.9 112.4l-64.9 52.4l-35 122.4l7.5 92.4l-45 69.9l-20 -7.5l-112.4 132.4l27.5 144.9l109.9 57.4l50 50l92.4 217.3l87.4 102.4l117.4 99.9l27.5 152.4l-162.3 35l-142.4 62.4l-74.9 54.9l-50 84.9l-35.5 79.7l-24.2 83.8l-12.4 86.4l-.4 87.3l-5 307.2l-227.3 -25l-17.5 22.5l-162.3 -15l-92.9 -110l48 -54.8l147.4 -142.4l-64.9 -42.5l-164.8 -124.9l177.3 -284.7l84.9 -189.8l-57.4 12.5l-182.3 124.9l-32.5 10l-54.9 52.4l-147.4 0z" />
		<path id="203" onmousemove="showData(evt);" attrib:stbname="Pfalzel" d="M2548821.3 -5516168.3l236 -193.4l-68.8 -62.3l42.6 -62.3l9.8 -72.1l-26.2 -141l-36.1 -52.5l-72.1 -59l95.7 -174.9l26.9 -206.3l165.9 -354.3l197.3 9l233.2 71.8l80.7 -4.5l444 -192.8l107.6 699.6l188.4 -67.3l89.7 -98.7l22.4 -125.6l206.3 4.5l17.9 408.1l-26.9 197.3l-53.8 121.1l-61.3 103.2l-37.3 62.8l-282.5 219.8l-157 80.7l-218 53l-314.7 55.7l-337.7 55.7l-334.4 55.7l-26.2 -78.7l-72.1 0l-6.6 -114.7l62.3 -16.4l-95.1 -121.3z" />
		<path id="204" onmousemove="showData(evt);" attrib:stbname="Ruwer" d="M2550648 -5518443.5l7.5 -269.7l87.6 -259.7l121.2 -245.8l50.4 -364.9l3 -368.4l5 -307.2l.4 -87.3l12.4 -86.4l24.2 -83.8l35.5 -79.7l50 -84.9l74.9 -54.9l142.4 -62.4l162.3 -35l245.1 .1l400.8 76.3l252 99.3l412.3 252l572.6 419.9l206.1 110.7l198.5 45.8l-7.6 87.8l-171.8 26.7l-152.7 49.6l-568.8 213.8l-221.4 84l-183.2 57.3l-99.3 3.8l-91.6 34.4l-72.5 99.3l-290.1 87.8l-305.4 118.3l-206.1 64.9l-129.8 57.3l-168 95.4l-80.2 53.4l-64.9 -11.5l-103.1 19.1l-53.4 61.1l3.8 110.7l15.3 84l-45.8 179.4l11.5 232.9l64.7 361.6l282.5 -31.4l9 -94.2l210.8 -174.9l152.5 22.4l192.8 112.1l228.7 139l273.6 139l228.7 85.2l44.8 224.2l139 269.1l-148 44.8l-152.5 17.9l0 26.9l-201.8 49.3l-273.6 62.8l-62.8 -26.9l-80.7 116.6l22.4 53.8l-188.4 139l-94.2 116.6l269.1 654.8l-107.6 -98.7l-44.8 44.8l-85.2 -44.8l-210.8 215.3l-174.9 116.6l-242.2 116.6l-417.1 80.7l-143.5 22.4l-91.5 146.4l-22.9 -36.1l-26.2 -114.7l19.7 -131.1l29.5 -137.7l-26.2 -55.7l3.3 -121.3l-29.5 -9.8l-196.7 157.4l-262.3 127.9l-229.5 101.6l-160.6 6.6l95.1 -190.1l3.3 -203.3l-29.5 -173.8l337.7 -55.7l314.7 -55.7l218 -53l157 -80.7l282.5 -219.8l37.3 -62.8l61.3 -103.2l53.8 -121.1l26.9 -197.3l-17.9 -408.1l-58.3 -426l-8.5 -82.8l-37.5 -342.2l-12.5 -342.2z" />
		<path id="205" onmousemove="showData(evt);" attrib:stbname="Eitelsbach" d="M2551374.7 -5516366.8l94.2 -116.6l188.4 -139l-22.4 -53.8l80.7 -116.6l62.8 26.9l273.6 -62.8l201.8 -49.3l0 -26.9l152.5 -17.9l148 -44.8l225.6 315.2l194.8 -9.9l303.8 85.9l-72.7 432.6l39.6 373.2l-541.6 -33l-59.4 23.1l-221.3 105.7l-89.2 109l-19.8 59.4l-52.8 -16.5l-3.3 -52.8l-66 -39.6l-9.9 13.2l-26.4 -6.6l-16.5 66l23.1 16.5l-3.3 66l-62.7 16.5l-109 99.1l-56.1 -46.2l-79.3 59.4l-72.7 -69.3l-82.6 -102.4l-52.9 -208.7l-269.1 -654.8z" />
		<path id="206" onmousemove="showData(evt);" attrib:stbname="Biewer" d="M2544474.4 -5516376.8l363.7 -11.1l150.8 -29.5l114.7 -32.8l108.2 -85.2l163.9 -85.2l88.5 -72.1l-13.1 -88.5l78.7 29.5l82 -26.2l-101.6 -167.2l-55.7 -150.8l19.7 -150.8l3.3 -78.7l49.2 -29.5l62.3 -6.6l.6 17.3l2.7 81l108.2 68.8l124.6 16.4l68.8 -72.1l-62.3 -85.2l29.5 -160.6l-29.5 -45.9l0 -108.2l337.7 131.1l111.5 62.3l55.7 134.4l82 -127.9l124.6 82l98.4 88.5l95.1 49.2l104.9 219.6l19.7 154.1l193.4 -39.3l137.7 9.8l36.1 16.4l124.6 -59l91.8 -134.4l62.3 -75.4l78.7 -88.5l114.7 -95.1l141 -75.4l45.9 -6.6l-72.1 167.2l16.4 278.7l39.3 124.6l-75.4 114.7l-42.6 -65.6l-101.6 -45.9l-98.4 108.2l-39.3 82l-59 101.6l36.1 55.7l209.8 3.3l141 91.8l-29.5 186.9l-1.6 61.8l50.8 .5l36.1 -82l72.1 -134.4l3.3 -22.9l26.2 13.1l95.1 -42.6l206.5 -278.7l118 -150.8l-121.3 -82l39.3 -62.3l131.1 91.8l22.9 -32.8l45.9 16.4l22.9 95.1l118 -167.2l229.5 167.2l72.1 59l36.1 52.5l26.2 141l-9.8 72.1l-42.6 62.3l68.8 62.3l-236 193.4l95.1 121.3l-62.3 16.4l6.6 114.7l72.1 0l26.2 78.7l-127.9 29.5l-462.2 118l-363.9 101.6l-357.3 111.5l-272.1 75.4l-232.8 49.2l-128.1 30.7l-214.4 52.2l-36.7 -153l36.7 -104.1l-36.7 -67.3l-30.6 -73.4l-79.6 -97.9l-171.4 55.1l-202 116.3l-97.9 73.4l-128.5 -61.2l-116.3 -134.7l-220.3 -116.3l49 -189.7l-208.1 -110.2l-324.4 122.4l-165.3 -42.8l-85.7 18.4l-55.1 -67.3l-128.5 18.4l-67.3 -202l-257.1 -91.8z" />
		<path id="301" onmousemove="showData(evt);" attrib:stbname="Pallien" d="M2542528 -5515709.7l30.6 -416.2l226.5 42.8l306 202l177.5 -122.4l110.2 -30.6l140.8 -128.5l-55.1 -55.1l-30.6 -146.9l-122.4 -73.4l-177.5 -55.1l-146.9 -122.4l104.1 18.4l153 12.2l250.9 6.1l165.3 134.7l146.9 49l189.7 0l299.9 6.1l177.5 12.2l257.1 91.8l67.3 202l128.5 -18.4l55.1 67.3l85.7 -18.4l165.3 42.8l324.4 -122.4l208.1 110.2l-49 189.7l220.3 116.3l116.3 134.7l128.5 61.2l97.9 -73.4l202 -116.3l171.4 -55.1l79.6 97.9l30.6 73.4l36.7 67.3l-36.7 104.1l36.7 153l-171.4 61.2l-391.7 171.4l-238.1 179.3l-185.2 166.7l-63.5 63.5l-195.8 235.5l-209 396.9l-100.5 -63.5l-97.9 190.5l-47.6 -21.2l-58.2 63.5l-111.1 -66.1l-13.2 21.2l-193.1 -82l-60.9 -45l-164 -84.3l-122.4 -67.3l238.7 -232.6l-128.5 -36.7l-183.6 -79.6l-36.7 30.6l-140.8 -122.4l55.1 -226.5l-312.2 -306l-232.6 -67.3l-287.7 -67.3l-226.5 -55.1l6.1 36.7l-183.6 -36.7l-140.8 -110.2l104.1 -153l-214.2 -159.1l-165.3 24.5z" />
		<path id="302" onmousemove="showData(evt);" attrib:stbname="Trier-West" d="M2544662.9 -5513997.2l60.9 45l193.1 82l13.2 -21.2l111.1 66.1l58.2 -63.5l47.6 21.2l97.9 -190.5l100.5 63.5l-42.3 137.6l-43.1 317l-55.6 418l-9.9 124.2l-5.9 74.2l-10.6 428.6l15.9 301.6l-86.5 5.8l-90 -26.5l-7.9 21.2l-84.7 -21.2l-108.5 179.9l-105.8 108.5l-52.9 -26.5l-26.5 -45l-42.3 -47.6l-291 -153.5l58.2 -58.2l-185.2 -87.3l13.2 -34.4l-95.3 -37l10.6 -37l-76.7 -42.3l0 -15.9l-58.2 -26.5l-142.9 -76.7l-119.1 -55.6l-470.6 -188.4l-73.4 -355l122.4 -24.5l73.4 -18.4l171.4 -177.5l-171.4 -195.9l397.8 -281.6l257.1 -116.3l220.3 -55.1l146.9 -67.3l122.4 67.3l164 84.3z" />
		<path id="303" onmousemove="showData(evt);" attrib:stbname="Euren" d="M2542540.9 -5509671.3l275.2 -156.1l402.2 -243.4l111.1 -105.8l-240.8 -277.8l-137.6 -119.1l-145.5 -148.2l-74.1 47.6l-60.9 -103.2l-111.1 -121.7l-100.5 60.9l-52.9 58.2l-47.6 68.8l-60.9 90l-95.3 127l-153.5 156.1l-238.1 134.9l-29.1 42.3l-172 71.4l-119.1 2.6l-93.9 -23.2l-75.4 -91.3l-15.9 -146.8l11.9 -174.6l83.3 -265.9l55.6 -131l19.8 -19.8l-23.8 -170.7l0 -194.5l-131 -23.8l-119.1 39.7l-59.5 35.7l-158.8 -15.9l-47.6 -39.7l-71.4 -166.7l-87.3 11.9l-87.3 -59.5l-4 -123l-31.8 -4l-7.9 182.6l-119.1 47.6l-23.8 -67.5l79.4 -131l7.9 -39.7l-79.4 23.8l-79.4 -55.6l-67.5 -63.5l-7.9 -131l115.1 -230.2l-138.9 -123l65 -81.7l85.7 -36.7l91.8 -49l183.6 -134.7l153 -177.5l238.7 -159.1l85.7 -159.1l232.6 -526.4l287.7 79.6l42.8 6.1l140.8 18.4l189.7 49l177.5 12.2l428.5 104.1l324.4 85.7l97.9 -6.1l73.4 355l470.6 188.4l119.1 55.6l142.9 76.7l58.2 26.5l0 15.9l76.7 42.3l-10.6 37l95.3 37l-13.2 34.4l185.2 87.3l-58.2 58.2l291 153.5l42.3 47.6l26.5 45l52.9 26.5l105.8 -108.5l108.5 -179.9l84.7 21.2l7.9 -21.2l90 26.5l86.5 -5.8l18.5 195.8l27 475.7l-28.8 435.6l-79.4 317.5l-43.7 166.7l-103.2 234.2l-91.3 182.6l-242.1 301.6l-265.9 325.4l-214.3 206.4l-325.4 186.5l-329.4 162.7l-619.1 313.5l-138.9 -174.6l206.4 -79.4l-202.4 -377l-220.9 -351.2z" />
		<path id="304" onmousemove="showData(evt);" attrib:stbname="Zewen" d="M2539829 -5510439.2l99.2 -142.9l51.6 31.8l254 -325.4l-63.5 -43.7l87.3 -146.8l-71.4 -222.3l-67.5 -127l-107.2 -150.8l-111.1 -59.5l246.1 -138.9l-39.7 -238.1l79.4 -91.3l146.8 -142.9l138.9 123l-115.1 230.2l7.9 131l67.5 63.5l79.4 55.6l79.4 -23.8l-7.9 39.7l-79.4 131l23.8 67.5l119.1 -47.6l7.9 -182.6l31.8 4l4 123l87.3 59.5l87.3 -11.9l71.4 166.7l47.6 39.7l158.8 15.9l59.5 -35.7l119.1 -39.7l131 23.8l0 194.5l23.8 170.7l-19.8 19.8l-55.6 131l-83.3 265.9l-11.9 174.6l15.9 146.8l75.4 91.3l93.9 23.2l119.1 -2.6l172 -71.4l29.1 -42.3l238.1 -134.9l153.5 -156.1l95.3 -127l60.9 -90l47.6 -68.8l52.9 -58.2l100.5 -60.9l111.1 121.7l60.9 103.2l74.1 -47.6l145.5 148.2l137.6 119.1l240.8 277.8l-111.1 105.8l-402.2 243.4l-275.2 156.1l220.9 351.2l202.4 377l-206.4 79.4l138.9 174.6l-726.3 361.2l-186.5 91.3l-361.2 174.6l-115.1 99.2l-107.2 150.8l-87.3 95.3l-210.3 281.8l-79.4 67.5l-206.4 51.6l-202.4 27.8l-265.9 -91.3l63.5 -174.6l51.6 11.9l23.8 -226.2l35.7 0l0 -59.5l87.3 -23.8l-51.6 -349.3l31.8 -19.8l-51.6 -238.1l-19.8 -95.3l91.3 -59.5l-99.2 -238.1l-63.5 0l-218.3 -388.9l-4 -214.3l-31.8 -182.6l27.8 -95.3l35.7 -35.7l-27.8 -75.4l-158.8 -150.8l-7.9 -63.5l83.3 -59.5l-35.7 -91.3l-150.8 -115.1l-95.3 -119.1l-19.8 27.8l-15.9 -23.8z" />
		<path id="401" onmousemove="showData(evt);" attrib:stbname="Alt-Kürenz" d="M2546940.8 -5513380.3l160.7 -284l.4 -.7l220.1 -349.1l.7 -1l52.5 -63l248.6 -199.6l150.6 -3.5l108.5 -7l56 -31.5l283.6 -7l28 49l-63 38.5l49 84l-224.1 171.6l-133.1 94.5l-42 -31.5l-31.5 -3.5l-87.5 80.5l-10.5 66.5l-112 98l-199.6 206.6l28 24.5l-68.8 83.5l-50.5 -37.9l-12.6 15.2l-65.7 -63.1l-35.4 32.8l-78.3 -78.3l-141.4 138.9l-30.9 -23.5z" />
		<path id="402" onmousemove="showData(evt);" attrib:stbname="Neu-Kürenz" d="M2549790.7 -5512380.1l-96.9 -156.2l-144.5 -214.9l-171.9 -238.3l-351.6 273.5l-164.1 156.3l-97 104.4l-126.3 -10.1l-55.6 -65.7l20.2 -118.7l15.2 -83.3l35.4 -70.7l143.9 -143.9l-98.5 -126.3l-35.4 0l-500 -128.8l-15.2 48l-108.6 90.9l-313.1 285.4l-50.5 60.6l-78.3 133.8l-118.7 -128.8l53 -70.7l55.6 -65.7l159.1 -146.5l-50.5 -48l245 -237.4l-146.5 -65.7l-161.6 25.3l-75.8 27.8l-227.3 166.7l-27.8 -88.4l-63.1 -12.6l116.2 -136.4l68.8 -83.5l-28 -24.5l199.6 -206.6l112 -98l10.5 -66.5l87.5 -80.5l31.5 3.5l42 31.5l133.1 -94.5l224.1 -171.6l-49 -84l63 -38.5l-28 -49l-283.6 7l-56 31.5l-108.5 7l-150.6 3.5l233.6 -159.5l200 -111.5l380.3 -239.3l291.8 -196.7l288.5 -200l144.2 -72.1l62.3 -68.8l160.6 -6.6l229.5 -101.6l262.3 -127.9l196.7 -157.4l29.5 9.8l-3.3 121.3l26.2 55.7l-29.5 137.7l-19.7 131.1l26.2 114.7l22.9 36.1l-75.4 78.7l-111.5 131.1l-137.7 144.2l-114.7 157.4l-49.2 65.6l-160.6 150.8l36.1 22.9l16.4 118l-19.7 160.6l46.6 92.6l217 76.7l52.9 95.3l111.1 18.5l124.4 79.4l100.5 55.6l195.8 116.4l185.2 169.3l34.4 2.6l68.8 351.9l-15.9 134.9l-74.1 246.1l-45 34.4l-124.4 37l-58.2 -2.6l-66.1 -10.6l-63.5 -45l-92.6 -5.3l-140.2 -58.2l10.6 92.6l-5.3 37l121.7 264.6l-188.7 95.7l-89.9 -136.7l-24.2 -39.1z" />
		<path id="403" onmousemove="showData(evt);" attrib:stbname="Gartenfeld" d="M2546971.7 -5513356.8l141.4 -138.9l78.3 78.3l35.4 -32.8l65.7 63.1l12.6 -15.2l50.5 37.9l-116.2 136.4l63.1 12.6l27.8 88.4l227.3 -166.7l75.8 -27.8l161.6 -25.3l146.5 65.7l-245 237.4l50.5 48l-159.1 146.5l-55.6 65.7l-53 70.7l118.7 128.8l-121.2 53l-174.3 15.2l-133.8 85.9l-50.5 -22.7l12.6 -169.2l-159.1 2.5l-12.6 -55.6l-32.8 68.2l-84 194l-158.8 -34.4l-134.9 29.1l0 47.6l-129.6 21.2l-7.9 -95.3l-26.5 -71.4l-26.5 -58.2l-5.3 -47.6l227.5 -217l99.7 -146l122.5 -179.4l105.8 -158.8l32.4 -57.3l30.9 23.5z" />
		<path id="404" onmousemove="showData(evt);" attrib:stbname="Olewig" d="M2548466.7 -5511442.6l-85.9 123.7l-68.2 -85.9l-80.8 -35.4l7.6 30.3l-63.1 30.3l-123.7 -7.6l-80.8 -22.7l-141.4 -12.6l-106.1 7.6l-184.4 -12.6l-82.7 -25.3l-41 -12.5l-32.8 -58.1l-25.3 -75.8l-138.9 -70.7l-128.8 -85.9l-58.1 -17.7l-55.6 2.5l-35.4 -70.7l-38.3 -7.7l-7.9 -58.2l156.1 -156.1l-150.8 -50.3l-58.2 -299l84 -194l32.8 -68.2l12.6 55.6l159.1 -2.5l-12.6 169.2l50.5 22.7l133.8 -85.9l174.3 -15.2l121.2 -53l78.3 -133.8l50.5 -60.6l313.1 -285.4l108.6 -90.9l15.2 -48l500 128.8l35.4 0l98.5 126.3l-143.9 143.9l-35.4 70.7l-15.2 83.3l-20.2 118.7l55.6 65.7l126.3 10.1l70.7 108.6l2.5 -83.3l58.1 -68.2l123.7 -60.6l202 -138.9l103.5 176.8l-37.9 48l17.7 93.4l-118.7 32.8l-55.6 156.6l-10.1 63.1l-50.5 0l17.7 128.8l133.8 27.8l106.1 73.2l0 113.6l70.7 63.1l-50.5 90.9l-149 -35.4l-32.8 131.3l-20.2 116.2l53 141.4l-73.2 -75.8l-126.3 -10.1l-90.9 -7.6l-42.9 0l-40.4 53l75.8 42.9l58.1 70.7l108.6 164.2l-53 35.4l-351 -335.9l-103.5 -131.3l-27.8 58.1l-65.7 -30.3z" />
		<path id="405" onmousemove="showData(evt);" attrib:stbname="Tarforst" d="M2549904.8 -5512204.2l188.7 -95.7l-121.7 -264.6l5.3 -37l-10.6 -92.6l140.2 58.2l92.6 5.3l63.5 45l66.1 10.6l58.2 2.6l124.4 -37l45 -34.4l74.1 -246.1l15.9 -134.9l-68.8 -351.9l-34.4 -2.6l-185.2 -169.3l-195.8 -116.4l31.8 -80.7l34.4 -232.8l-52.9 -34.4l-31.8 -256.6l230.2 -15.9l82 132.3l105.8 187.9l174.6 301.6l-23.8 333.4l79.4 45l-13.2 68.8l164 18.5l10.6 -39.7l10.6 -230.2l74.1 -45l58.2 -161.4l95.3 -50.3l111.1 -150.8l55.6 -105.8l108.5 -103.2l79.4 74.1l45 71.4l2.6 132.3l-63.5 100.5l-105.8 203.7l-68.8 76.7l-82 142.9l7.9 52.9l-246.1 267.2l214.3 214.3l7.9 129.6l150.8 18.5l108.5 -52.9l82 -21.2l37 108.5l37 58.2l66.1 7.9l119.1 63.5l87.3 63.5l203.7 243.4l119.1 166.7l129.6 71.4l206.4 121.7l5.3 134.9l26.5 71.4l116.4 -39.7l29.1 0l47.6 -34.4l66.1 -5.3l76.7 -23.8l63.5 29.1l206.4 -217l68.8 -13.2l74.1 -42.3l82 87.3l42.3 -2.6l26.5 87.3l97.9 50.3l26.5 103.2l-23.8 45l-164 105.8l-39.7 -5.3l-15.9 68.8l-15.9 26.5l29.1 74.1l-39.7 142.9l-82 95.3l2.6 63.5l-21.2 45l13.2 95.3l31.8 45l-21.2 137.6l-82 23.8l-140.2 39.7l-182.6 -232.8l-121.7 -103.2l-121.7 -111.1l-195.8 -153.5l-294.9 -236.9l-222.7 -207.1l-164.1 -128.9l-144.5 -50.8l-7.8 109.4l-121.1 27.3l-39.1 -113.3l-125 35.2l-62.5 0l-43 -11.7l-168 93.8l-132.8 -136.7l-132.8 -89.9l31.3 128.9l-50.8 -35.2l-39.1 144.5l-31.3 0l-74.2 222.7l-78.1 -19.5l-175.8 -113.3l0 0l-480.5 675.8l-74.2 121.1l-62.5 -15.6l27.3 -66.4l-3.9 -195.3l62.5 -78.1l-113.3 -82l-109.4 179.7l-128.9 105.5l-128.9 -31.3l-62.5 -140.6l-56.3 -133.8l-63.4 -51.3l-53 -141.4l20.2 -116.2l32.8 -131.3l149 35.4l50.5 -90.9l-70.7 -63.1l0 -113.6l-106.1 -73.2l-133.8 -27.8l-17.7 -128.8l50.5 0l10.1 -63.1l55.6 -156.6l118.7 -32.8l-17.7 -93.4l37.9 -48l-103.5 -176.8l-202 138.9l-123.7 60.6l-58.1 68.2l-2.5 83.3l-70.7 -108.6l97 -104.4l164.1 -156.3l351.6 -273.5l171.9 238.3l144.5 214.9l96.9 156.2l24.2 39.1l0 0l89.9 136.7l0 0z" />
		<path id="406" onmousemove="showData(evt);" attrib:stbname="Filsch" d="M2549838.4 -5510766.6l74.2 -121.1l480.5 -675.8l175.8 113.3l78.1 19.5l74.2 -222.7l31.3 0l39.1 -144.5l50.8 35.2l-31.3 -128.9l132.8 89.9l132.8 136.7l168 -93.8l43 11.7l62.5 0l125 -35.2l39.1 113.3l121.1 -27.3l7.8 -109.4l144.5 50.8l164.1 128.9l222.7 207.1l-222.7 199.2l-152.4 85.9l-156.3 39.1l-93.8 50.8l-78.1 -43l11.7 58.6l78.1 74.2l-168 35.2l-78.1 35.2l-214.9 -144.5l-82 -19.5l-132.8 -70.3l-50.8 117.2l-3.9 54.7l3.9 175.8l-46.9 136.7l-97.7 117.2l-132.8 -11.7l-316.4 -152.4l58.6 -15.6l-78.1 -89.9l-109.4 -39.1l-78.1 -46.9l-113.3 128.9l-82 -23.4z" />
		<path id="407" onmousemove="showData(evt);" attrib:stbname="Irsch" d="M2549439.9 -5508403.1l15.6 -93.8l66.4 -148.5l50.8 -226.6l-66.4 -257.8l31.3 -222.7l58.6 -78.1l3.9 -74.2l-23.4 -97.7l-27.3 -27.3l7.8 -70.3l74.2 -74.2l-3.9 -31.3l78.1 -246.1l-7.8 -187.5l-39.1 -46.9l3.9 -66.4l-35.2 -89.9l-54.7 11.7l-50.8 -132.8l-27.3 -27.3l-19.5 -128.9l-238.3 -101.6l-168.9 -217.3l-108.6 -164.2l-58.1 -70.7l-75.8 -42.9l40.4 -53l42.9 0l90.9 7.6l126.3 10.1l73.2 75.8l63.4 51.3l56.3 133.8l62.5 140.6l128.9 31.3l128.9 -105.5l109.4 -179.7l113.3 82l-62.5 78.1l3.9 195.3l-27.3 66.4l62.5 15.6l82 23.4l113.3 -128.9l78.1 46.9l109.4 39.1l78.1 89.9l-58.6 15.6l316.4 152.4l132.8 11.7l97.7 -117.2l46.9 -136.7l-3.9 -175.8l3.9 -54.7l50.8 -117.2l132.8 70.3l82 19.5l214.9 144.5l78.1 -35.2l168 -35.2l-62.5 371.1l105.5 50.8l-19.5 85.9l109.4 31.3l-43 85.9l-312.5 351.6l-136.7 308.6l218.8 117.2l-11.7 101.6l7.8 35.2l62.5 11.7l7.8 207.1l-175.8 -62.5l-222.7 -78.1l-195.3 -78.1l-93.8 144.5l-97.7 187.5l-140.6 226.6l-168 257.8l35.2 50.8l-152.4 183.6l-304.7 -117.2l3.9 46.9l-175.8 31.3l105.5 -191.4l15.6 -50.8l-19.5 -62.5l-109.4 -50.8l-43 121.1l27.3 11.7l-82 242.2l0 97.7l-70.3 39.1l-140.6 -117.2l-43 -39.1z" />
		<path id="408" onmousemove="showData(evt);" attrib:stbname="Kernscheid" d="M2547496.9 -5508553.1l95.3 -269.9l60.3 -187.3l31.8 -44.5l181 -209.6l168.3 -196.9l69.9 -73l228.6 -247.7l-9.5 -63.5l190.5 -282.6l44.5 -247.7l149.2 -184.2l28.6 -25.4l6.4 -142.9l-47.6 -127l-155.6 -247.7l-66.7 -63.5l-90.7 -152.7l85.9 -123.7l65.7 30.3l27.8 -58.1l103.5 131.3l351 335.9l53 -35.4l168.9 217.3l238.3 101.6l19.5 128.9l27.3 27.3l50.8 132.8l54.7 -11.7l35.2 89.9l-3.9 66.4l39.1 46.9l7.8 187.5l-78.1 246.1l3.9 31.3l-74.2 74.2l-7.8 70.3l27.3 27.3l23.4 97.7l-3.9 74.2l-58.6 78.1l-31.3 222.7l66.4 257.8l-50.8 226.6l-66.4 148.5l-15.6 93.8l-43 11.7l-19.5 -19.5l-58.6 74.2l-15.6 -7.8l-54.7 78.1l-27.3 -27.3l-54.7 50.8l-109.4 128.9l-27.3 -27.3l-113.3 -23.4l-230.5 -62.5l-58.6 -15.6l-175.8 -19.5l-78.1 125l-117.2 -109.4l-58.6 -78.1l-97.7 -144.5l-50.8 0l11.7 -214.9l-128.9 -31.3l-136.7 85.9l-74.2 121.1l-109.4 -31.3l-27.3 27.3l-87.4 -40.6z" />
		<path id="501" onmousemove="showData(evt);" attrib:stbname="Alt-Heiligkreuz" d="M2545883.7 -5512089.9l14 -45.1l37 -68.8l95.3 -153.5l169.5 -138l153.3 -126.5l5.3 47.6l26.5 58.2l26.5 71.4l7.9 95.3l37 47.6l82 29.1l21.2 50.3l-10.6 87.3l-5.3 169.3l13.2 74.1l-76.7 31.8l-58.2 39.7l-151.9 183.1l-101 116.2l-53 123.7l-126.9 78.6l-41.3 -98.4l-92.1 -44.5l-15.9 -382.6l10.6 -137.6l33.6 -108.4z" />
		<path id="502" onmousemove="showData(evt);" attrib:stbname="Neu-Heiligkreuz" d="M2546556.5 -5511891.6l-13.2 -74.1l5.3 -169.3l10.6 -87.3l-21.2 -50.3l-82 -29.1l-37 -47.6l129.6 -21.2l0 -47.6l134.9 -29.1l158.8 34.4l58.2 299l150.8 50.3l-156.1 156.1l7.9 58.2l38.3 7.7l35.4 70.7l55.6 -2.5l58.1 17.7l128.8 85.9l138.9 70.7l25.3 75.8l-83.3 118.7l-45.5 232.3l-138.9 224.8l-104.6 .6l95.3 238.1l-9.5 146.1l130.2 269.9l47.6 98.4l-73 22.2l-139.7 34.9l-85.7 34.9l-38.1 28.6l-184.2 -15.9l44.5 -177.8l-3.2 -73l41.3 -98.4l-50.8 0l-85.7 38.1l-60.3 6.4l-79.4 6.4l-88.9 -63.5l34.9 -123.8l34.9 -95.3l22.2 -3.2l22.2 -282.6l-83.6 -74.4l-138.9 -85.9l-53 -83.3l-194.5 -197l53 -123.7l101 -116.2l151.9 -183.1l58.2 -39.7l76.7 -31.8z" />
		<path id="503" onmousemove="showData(evt);" attrib:stbname="Mariahof" d="M2547457.2 -5511452.8l82.7 25.3l184.4 12.6l106.1 -7.6l141.4 12.6l80.8 22.7l123.7 7.6l63.1 -30.3l-7.6 -30.3l80.8 35.4l68.2 85.9l90.7 152.7l66.7 63.5l155.6 247.7l47.6 127l-6.4 142.9l-28.6 25.4l-149.2 184.2l-44.5 247.7l-190.5 282.6l9.5 63.5l-228.6 247.7l-69.9 73l-168.3 196.9l-181 209.6l-31.8 44.5l-60.3 187.3l-95.3 269.9l-41.3 0l-57.2 203.2l-50.8 149.2l3.2 73l-34.9 22.2l19.1 76.2l-69.9 149.2l-123.8 219.1l-25.4 6.3l-38.1 79.4l-139.7 -63.5l-92.1 -104.8l-130.2 238.1l-79.4 155.6l-25.4 76.2l-44.5 76.2l-108 120.7l-257.2 -111.1l-225.4 -114.3l-282.6 -130.2l-155.6 -73l-104.8 -66.7l-6.4 -127l-15.9 -219.1l-9.5 -333.4l133.4 -203.2l196.9 -254l79.4 -225.4l66.7 -228.6l158.8 -209.6l54 -92.1l177.8 15.9l-25.4 -114.3l25.4 -279.4l-38.1 -120.7l47.6 -108l85.7 -120.7l25.4 12.7l57.2 -92.1l0 54l41.3 60.3l41.3 47.6l225.4 19.1l184.2 15.9l38.1 -28.6l85.7 -34.9l139.7 -34.9l73 -22.2l-47.6 -98.4l-130.2 -269.9l9.5 -146.1l-95.3 -238.1l104.6 -.6l138.9 -224.8l45.5 -232.3l83.3 -118.7l32.8 58.1l41 12.5z" />
		<path id="504" onmousemove="showData(evt);" attrib:stbname="Weismark" d="M2545988.7 -5511318.5l126.9 -78.6l194.5 197l53 83.3l138.9 85.9l83.6 74.4l-22.2 282.6l-22.2 3.2l-34.9 95.3l-34.9 123.8l88.9 63.5l79.4 -6.4l60.3 -6.4l85.7 -38.1l50.8 0l-41.3 98.4l3.2 73l-44.5 177.8l-225.4 -19.1l-41.3 -47.6l-41.3 -60.3l0 -54l-57.2 92.1l-25.4 -12.7l-85.7 120.7l-47.6 108l38.1 120.7l-25.4 279.4l25.4 114.3l-177.8 -15.9l31.8 -82.6l-69.9 -257.2l38.1 -28.6l-149.2 -149.2l-95.3 -63.5l25.4 -44.5l-50.8 -69.9l-250.8 -149.2l-31.8 -31.8l-22.2 -114.3l-50.8 -69.9l-57.2 -108l-12.7 -12.7l288.9 -339.7l101.6 -168.3l73 -215.9l-3.2 -92.1l92.1 44.5l41.3 98.4z" />
		<path id="505" onmousemove="showData(evt);" attrib:stbname="Feyen" d="M2545242.6 -5510467.6l152.4 -177.8l12.7 12.7l57.2 108l50.8 69.9l22.2 114.3l31.8 31.8l250.8 149.2l50.8 69.9l-25.4 44.5l95.3 63.5l149.2 149.2l-38.1 28.6l69.9 257.2l-31.8 82.6l-54 92.1l-158.8 209.6l-66.7 228.6l-79.4 225.4l-196.9 254l-133.4 203.2l9.5 333.4l15.9 219.1l6.4 127l104.8 66.7l-246.8 106.3l-187.5 74.2l-132.8 101.6l-203.1 -3.9l-152.4 39.1l-19.5 -19.5l-31.3 15.6l-93.8 97.7l-50.8 -35.2l-113.3 -7.8l-43 -35.2l97.7 -82l125 -164.1l-105.5 50.8l-27.3 -15.6l-128.9 74.2l-74.2 -101.6l175.8 -148.5l-82 -113.3l171.9 -121.1l-238.3 -214.9l-109.4 -144.5l-7.8 -54.7l242.2 -648.5l125 -238.3l27.3 -66.4l78.1 -175.8l93.8 -187.5l125 -199.2l-3.9 -35.2l11.7 -43l230.5 -273.5l160.2 -253.9l92.2 -138.6z" />
	</g>
	<text id="info" x="2539481" y="-5524200" font-size="575">Stadt Trier</text>
</svg>